<svg xmlns="http://www.w3.org/2000/svg" viewBox="0 0 100 100" role="img" aria-label="ZŠ Gutha-Jarkovského – A1">
  <rect width="100" height="100" rx="26" fill="#ff8a00"/>
  <g transform="translate(0 0)">
  <circle cx="27.5" cy="63" r="5.5" fill="#ffd9b0"/><circle cx="72.5" cy="63" r="5.5" fill="#ffd9b0"/>
  <path d="M28 50 C27 77 37 90 50 90 C63 90 73 77 72 50 Z" fill="#ffd9b0"/>
  </g>
  <path d="M50 64 C46.5 70 47 73.5 50 73.5 C53 73.5 53.5 70 50 64 Z" fill="#f2b98c" transform="translate(0 0)"/>
  <g transform="translate(0 0)">
  <path d="M31.5 61.5 L28 60 M68.5 61.5 L72 60" stroke="#1d2150" stroke-width="2.4" stroke-linecap="round"/>
  <circle cx="40" cy="62" r="8.5" fill="#fff9f0" stroke="#1d2150" stroke-width="3.6"/>
  <circle cx="60" cy="62" r="8.5" fill="#fff9f0" stroke="#1d2150" stroke-width="3.6"/>
  <path d="M36.5 58.5 Q38 57 40 57" fill="none" stroke="#ffffff" stroke-width="1.6" stroke-linecap="round"/>
  <path d="M56.5 58.5 Q58 57 60 57" fill="none" stroke="#ffffff" stroke-width="1.6" stroke-linecap="round"/>
  <path d="M48 61 Q50 59 52 61" fill="none" stroke="#1d2150" stroke-width="2.6" stroke-linecap="round"/>
  </g>
  <path transform="translate(0 0)" d="M50 74.5
    C46 71 38 70.5 33 74 C30.5 75.8 28.2 74.6 27 69.5
    C25.8 77.0 30 80.5 36.5 79.5 C42 78.7 46 77.6 50 77.6
    C54 77.6 58 78.7 63.5 79.5 C70 80.5 74.2 77.0 73 69.5
    C71.8 74.6 69.5 75.8 67 74 C62 70.5 54 71 50 74.5 Z"
    fill="#f4f1ea" stroke="#1d2150" stroke-width="1.8" stroke-linejoin="round"/>
  <g transform="translate(0 0) rotate(0 50 46)">
  <path d="M32 46 L34 21 Q35 17 40 17 H60 Q65 17 66 21 L68 46 Z" fill="#1d2150"/>
  <path d="M41 21 Q50 25 59 21" fill="none" stroke="#3d4277" stroke-width="2" stroke-linecap="round"/>
  <rect x="33" y="36" width="34" height="6" fill="#ffcf33"/>
  <path d="M13 47 Q50 39 87 47 Q89 52 83 53.5 Q50 47 17 53.5 Q11 52 13 47 Z" fill="#1d2150"/>
  </g>
  <g transform="translate(0 0)">
  <path d="M50 92 L41 87.5 L41 96.5 Z M50 92 L59 87.5 L59 96.5 Z" fill="#ffcf33" stroke="#1d2150" stroke-width="2" stroke-linejoin="round"/>
  <circle cx="50" cy="92" r="2.4" fill="#1d2150"/>
  </g>
</svg>
